# Blender 3.6.2
# www.blender.org
mtllib Samolet.mtl
o Cube
v 1.000000 1.272279 2.233654
v 7.812436 0.475256 -2.933002
v 7.812436 0.661346 -2.933002
v 0.881140 -0.694347 3.770706
v -1.000000 1.272279 2.233653
v 7.812436 0.475256 -1.806777
v -0.881140 -0.694347 3.770706
v 7.812436 0.661346 -1.806777
v 1.000000 1.640246 1.000000
v 5.189587 0.477638 -2.071026
v 5.462881 0.021570 0.630520
v 1.000000 -1.000000 1.000000
v -1.000000 1.640246 1.000000
v 5.189587 0.021570 -2.071026
v 5.462881 0.477638 0.630520
v -1.000000 -1.000000 1.000000
v 0.881140 0.632362 3.769614
v 3.037663 -0.165461 -1.642659
v 0.202690 -0.292424 5.569701
v 3.037663 0.290606 1.705088
v 0.202690 -0.571021 5.569701
v 3.037663 0.290606 -1.642659
v 3.037663 -0.165461 1.705088
v -0.202691 -0.292424 5.569701
v -7.812436 0.475256 -2.933002
v -0.881140 0.632362 3.769614
v -7.812436 0.661346 -2.933002
v -7.812436 0.475256 -1.806777
v -0.202691 -0.571021 5.569701
v -7.812436 0.661346 -1.806777
v -5.189587 0.021570 -2.071026
v 1.000000 1.668084 -0.709091
v -5.462881 0.477638 0.630520
v 1.000000 -1.000000 -0.709091
v -5.189587 0.477638 -2.071026
v -1.000000 1.668084 -0.709091
v -1.000000 -1.000000 -0.709091
v -5.462881 0.021570 0.630520
v -3.037662 0.290606 -1.642660
v 1.000000 1.369395 -2.025536
v -3.037663 -0.165461 1.705088
v 1.000000 -0.616590 -3.317252
v -1.000000 1.369395 -2.025536
v -3.037662 -0.165461 -1.642660
v -3.037663 0.290606 1.705088
v -1.000000 -0.616590 -3.317252
v 1.000000 1.000000 -3.317252
v -1.000000 1.000000 -3.317252
v 0.322868 0.547529 -5.547939
v 0.662889 0.800608 -4.483157
v 0.322868 -0.098206 -5.547939
v 1.000000 -0.269864 -4.483157
v -0.662889 0.800608 -4.483157
v -0.322867 0.547529 -5.547939
v -1.000000 -0.269864 -4.483157
v -0.322867 -0.098206 -5.547939
v -1.492235 -0.207154 2.249892
v -1.492235 0.248913 2.249892
v 1.492235 -0.207154 2.249892
v 1.492235 0.248913 2.249892
v 1.493492 -0.207134 -2.048281
v 1.493492 0.248933 -2.048281
v -1.493491 -0.207134 -2.048281
v -1.493491 0.248933 -2.048281
v -1.297638 1.093034 1.000000
v -1.297638 1.106953 -0.709091
v 1.297638 1.093034 1.000000
v 1.297638 1.106953 -0.709091
vn -0.0000 0.9583 0.2858
vn -0.8697 0.4730 0.1411
vn -0.7641 -0.6368 0.1030
vn -0.0000 -1.0000 -0.0000
vn -0.0000 -0.9940 0.1097
vn 0.8697 0.4730 0.1411
vn 0.7641 -0.6368 0.1030
vn -0.0000 0.9231 0.3846
vn -0.0000 -0.0000 1.0000
vn -0.9288 0.1650 0.3318
vn 0.9357 0.0002 0.3528
vn -0.9357 0.0002 0.3528
vn -0.0000 0.8895 0.4570
vn -0.0000 -0.9977 0.0684
vn 0.9288 0.1650 0.3318
vn -0.0000 -0.9894 -0.1454
vn -0.0000 0.9999 0.0163
vn 0.8493 -0.5279 0.0002
vn 0.8810 0.4732 0.0058
vn -0.8810 0.4732 0.0058
vn -0.8493 -0.5279 0.0002
vn -0.0000 0.9615 -0.2750
vn -0.0000 0.9752 -0.2213
vn -0.8785 0.4660 -0.1057
vn -0.7669 -0.6350 -0.0933
vn 0.7669 -0.6350 -0.0933
vn 0.8785 0.4660 -0.1057
vn -0.0000 -0.9585 -0.2850
vn -0.9482 0.1485 -0.2808
vn 0.9482 0.1485 -0.2808
vn -0.0000 0.9857 -0.1686
vn -0.9832 0.1234 -0.1344
vn 0.9832 0.1234 -0.1344
vn -0.0000 -0.9873 -0.1592
vn -0.8860 0.1740 -0.4298
vn 0.8860 0.1740 -0.4298
vn -0.0000 0.9729 -0.2312
vn -0.0000 -0.0000 -1.0000
vn -0.3122 -0.0000 -0.9500
vn 1.0000 -0.0000 -0.0000
vn 0.7199 -0.0000 0.6940
vn 0.1716 -0.9851 -0.0123
vn -0.0704 0.9975 0.0050
vn -0.1952 -0.0000 -0.9808
vn 0.2541 -0.0000 -0.9672
vn 0.4051 -0.0000 0.9143
vn 0.0803 -0.9968 -0.0036
vn -0.0803 0.9968 0.0036
vn -0.7199 -0.0000 0.6940
vn -1.0000 -0.0000 -0.0000
vn -0.1716 -0.9851 -0.0123
vn 0.0704 0.9975 0.0050
vn 0.3122 -0.0000 -0.9500
vn 0.0803 0.9968 0.0036
vn -0.0803 -0.9968 -0.0036
vn -0.4051 -0.0000 0.9143
vn -0.3325 -0.0000 0.9431
vn -0.0270 -0.9996 -0.0000
vn 0.0270 0.9996 -0.0000
vn 0.1952 -0.0000 -0.9808
vn -0.2541 -0.0000 -0.9672
vn 0.3325 -0.0000 0.9431
vn 0.0270 -0.9996 -0.0000
vn -0.0270 0.9996 -0.0000
vn -0.9071 0.4020 -0.1249
vn -0.9747 0.2235 0.0007
vn -0.8897 0.4304 0.1521
vn 0.9071 0.4020 -0.1249
vn 0.9747 0.2235 0.0007
vn 0.8897 0.4304 0.1521
vt 0.625000 0.500000
vt 0.875000 0.500000
vt 0.875000 0.750000
vt 0.625000 0.750000
vt 0.625000 1.000000
vt 0.559130 1.000000
vt 0.450075 1.000000
vt 0.375000 1.000000
vt 0.375000 0.750000
vt 0.125000 0.500000
vt 0.125000 0.750000
vt 0.375000 0.500000
vt 0.559130 0.250000
vt 0.625000 0.250000
vt 0.565885 0.500000
vt 0.375000 0.250000
vt 0.454080 0.500000
vt 0.482588 0.607588
vt 0.517412 0.607588
vt 0.517412 0.642412
vt 0.482588 0.642412
vt 0.454080 0.750000
vt 0.565885 0.750000
vt 0.507479 0.750000
vt 0.454499 0.500000
vt 0.506770 0.500000
vt 0.449292 0.250000
vt 0.450075 0.250000
vt 0.558513 0.250000
vt 0.558513 1.000000
vt 0.449292 1.000000
vt 0.560685 1.000000
vt 0.444015 1.000000
vt 0.496371 1.000000
vt 0.444062 1.000000
vt 0.560686 0.250000
vt 0.496773 0.250000
vt 0.444015 0.250000
vt 0.375000 0.000000
vt 0.459642 0.084642
vt 0.459642 0.165358
vt 0.625000 0.000000
vt 0.540358 0.084642
vt 0.540358 0.165358
vt 0.375000 0.187500
vt 0.625000 0.187500
vt 0.625000 0.562500
vt 0.375000 0.562500
vt 0.125000 0.562500
vt 0.875000 0.562500
vt 0.375000 0.156250
vt 0.625000 0.156250
vt 0.625000 0.140755
vt 0.375000 0.140755
vt 0.625000 0.593750
vt 0.375000 0.593750
vt 0.125000 0.593750
vt 0.875000 0.593750
vt 0.375000 0.687500
vt 0.625000 0.687500
vt 0.125000 0.687500
vt 0.875000 0.687500
vt 0.625000 0.062500
vt 0.375000 0.062500
vt 0.625000 0.656250
vt 0.875000 0.656250
vt 0.125000 0.656250
vt 0.375000 0.656250
vt 0.375000 0.640740
vt 0.625000 0.640740
vt 0.203542 0.640755
vt 0.875000 0.640755
vt 0.697969 0.640755
vt 0.625000 0.093750
vt 0.375000 0.093750
vt 0.625000 0.109245
vt 0.375000 0.109245
vt 0.375000 0.609260
vt 0.625000 0.609260
vt 0.302031 0.609245
vt 0.125000 0.609245
vt 0.796458 0.609245
vt 0.492025 1.000000
vt 0.493259 1.000000
vt 0.506770 0.750000
vt 0.496371 0.250000
vt 0.492025 0.250000
vt 0.493259 0.250000
s 0
usemtl Material
f 1/1/1 9/2/1 13/3/1 5/4/1
f 5/4/2 13/5/2 65/6/2
f 57/7/3 16/8/3 7/9/3
f 12/10/4 16/11/4 37/11/4 34/10/4
f 12/10/5 4/12/5 7/9/5 16/11/5
f 67/13/6 9/14/6 1/15/6
f 4/12/7 12/16/7 59/17/7
f 1/1/8 5/4/8 26/4/8 17/1/8
f 21/18/9 19/19/9 24/20/9 29/21/9
f 57/22/10 7/9/10 26/4/10 5/23/10 58/24/10
f 19/19/11 21/18/11 4/12/11 17/1/11
f 26/4/12 7/9/12 29/21/12 24/20/12
f 17/1/13 26/4/13 24/20/13 19/19/13
f 7/9/14 4/12/14 21/18/14 29/21/14
f 1/1/15 17/1/15 4/12/15 59/25/15 60/26/15
f 34/10/16 37/11/16 46/11/16 42/10/16
f 13/3/17 9/2/17 32/2/17 36/3/17
f 12/16/18 34/16/18 61/27/18 59/28/18
f 68/29/19 32/14/19 9/14/19 67/13/19
f 65/6/20 13/5/20 36/5/20 66/30/20
f 63/31/21 37/8/21 16/8/21 57/7/21
f 43/3/22 40/2/22 47/2/22 48/3/22
f 36/3/23 32/2/23 40/2/23 43/3/23
f 66/30/24 36/5/24 43/32/24
f 63/33/25 46/8/25 37/8/25
f 34/16/26 42/16/26 61/27/26
f 40/14/27 32/14/27 68/29/27
f 42/10/28 46/11/28 55/11/28 52/10/28
f 64/34/29 43/5/29 48/5/29 46/8/29 63/35/29
f 42/16/30 47/14/30 40/36/30 62/37/30 61/38/30
f 48/3/31 47/2/31 50/2/31 53/3/31
f 46/8/32 48/5/32 53/5/32 55/8/32
f 47/14/33 42/16/33 52/16/33 50/14/33
f 52/16/34 55/39/34 56/40/34 51/41/34
f 55/39/35 53/42/35 54/43/35 56/40/35
f 50/14/36 52/16/36 51/41/36 49/44/36
f 53/42/37 50/14/37 49/44/37 54/43/37
f 56/40/38 54/43/38 49/44/38 51/41/38
f 14/45/39 10/46/39 3/14/39 2/16/39
f 2/16/40 3/14/40 8/1/40 6/12/40
f 6/12/41 8/1/41 15/47/41 11/48/41
f 2/10/42 6/12/42 11/48/42 14/49/42
f 8/1/43 3/2/43 10/50/43 15/47/43
f 18/51/44 22/52/44 10/46/44 14/45/44
f 62/53/45 22/52/45 18/51/45 61/54/45
f 11/48/46 15/47/46 20/55/46 23/56/46
f 14/49/47 11/48/47 23/56/47 18/57/47
f 15/47/48 10/50/48 22/58/48 20/55/48
f 38/59/49 33/60/49 30/4/49 28/9/49
f 28/9/50 30/4/50 27/5/50 25/8/50
f 31/61/51 38/59/51 28/9/51 25/11/51
f 33/60/52 35/62/52 27/3/52 30/4/52
f 25/39/53 27/42/53 35/63/53 31/64/53
f 45/65/54 39/66/54 35/62/54 33/60/54
f 44/67/55 41/68/55 38/59/55 31/61/55
f 41/68/56 45/65/56 33/60/56 38/59/56
f 45/65/57 41/68/57 57/69/57 58/70/57
f 57/69/58 41/68/58 44/67/58 63/71/58
f 64/72/59 39/66/59 45/65/59 58/73/59
f 31/64/60 35/63/60 39/74/60 44/75/60
f 44/75/61 39/74/61 64/76/61 63/77/61
f 59/78/62 23/56/62 20/55/62 60/79/62
f 18/57/63 23/56/63 59/80/63 61/81/63
f 60/79/64 20/55/64 22/58/64 62/82/64
f 64/83/65 66/30/65 43/32/65
f 58/84/66 65/6/66 66/30/66 64/83/66
f 58/85/67 5/23/67 65/6/67
f 62/86/68 40/36/68 68/29/68
f 62/87/69 68/29/69 67/13/69 60/88/69
f 60/88/70 67/13/70 1/15/70
